# xmcd
#
# Track frame offsets:
#	150
#	14695
#	42636
#	53606
#	71974
#	103869
#	128123
#	141776
#	161618
#	168760
#	185887
#	224633
#
# Disc length: 3298 seconds
#
# Revision: 0
# Processed by: cddbd v1.5.1PL0 Copyright (c) Steve Scherf et al.
# Submitted via: dBpowerAMP V4.0
#
DISCID=bc0ce00c
DTITLE=Istvan Rakos And His Gipsy Ensemble - Hungary
DYEAR=1900
DGENRE=Country
TTITLE0=Das Ist Schon
TTITLE1=Die Morgendammerung
TTITLE2=Die Lerche
TTITLE3=Strasse Nach Akacos
TTITLE4=Potpurri Ugarischer Melodien 1
TTITLE5=Wir Werden Uns Nie Wieder
TTITLE6=Hoilik Tanz
TTITLE7=Verfluche Mich Nicht
TTITLE8=Wenn Duie Geige Weint
TTITLE9=Herbstabend
TTITLE10=Potpurri Ugarischer Melodien 2
TTITLE11=Warum Kann Ich Nicht Lieben
EXTD=
EXTT0=
EXTT1=
EXTT2=
EXTT3=
EXTT4=
EXTT5=
EXTT6=
EXTT7=
EXTT8=
EXTT9=
EXTT10=
EXTT11=
PLAYORDER=
